<svg id="SvgjsSvg1084" width="288" height="288" xmlns="http://www.w3.org/2000/svg" version="1.1" xmlns:xlink="http://www.w3.org/1999/xlink" xmlns:svgjs="http://svgjs.com/svgjs"><defs id="SvgjsDefs1085"></defs><g id="SvgjsG1086"><svg xmlns="http://www.w3.org/2000/svg" enable-background="new 0 0 68 68" viewBox="0 0 68 68" width="288" height="288"><path fill="#0f9d58" d="M6.68516,7.00075v53.99862c0,2.76143,2.23858,5,5,5h48.44218c0.6559,0,1.1876-0.53171,1.1876-1.18761
			V3.18836c0-0.6559-0.53171-1.1876-1.1876-1.1876H11.68516C8.92373,2.00075,6.68516,4.23933,6.68516,7.00075z" class="colorF37D7F svgShape"></path><path fill="#0f9d58" d="M61.31303,3.19026v61.62c0,0.64996-0.53003,1.19-1.19,1.19h-48.44c-2.76001,0-5-2.23999-5-5v-6.54004
			c18.03998-5.37,28.95996-16.06,35.57001-26.78998c2.98999-4.82001,5.08997-9.65002,6.57001-14
			c1.58997-4.62,2.46997-8.70001,2.96997-11.66998h8.33002C60.783,2.00026,61.31303,2.53023,61.31303,3.19026z" class="colorEF3F3E svgShape"></path><path fill="#ffffff" d="M22.79864,14.6657v12c0,0.55228,0.44772,1,1,1h28c0.55228,0,1-0.44772,1-1v-12c0-0.55229-0.44772-1-1-1
			h-28C23.24635,13.6657,22.79864,14.11341,22.79864,14.6657z" class="colorFFF svgShape"></path><path fill="#dfe1e6" d="M52.80302,14.67024v12c0,0.54999-0.45001,1-1,1h-9.54999c2.98999-4.82001,5.08997-9.65002,6.57001-14
			h2.97998C52.35301,13.67024,52.80302,14.11024,52.80302,14.67024z" class="colorDFE1E6 svgShape"></path><path fill="#231f20" d="M51.79883,28.66579h-28c-1.10303,0-2-0.89697-2-2v-12c0-1.10303,0.89697-2,2-2h28c1.10303,0,2,0.89697,2,2
			v12C53.79883,27.76881,52.90186,28.66579,51.79883,28.66579z M23.79883,14.66579v12h28.00146l-0.00146-12H23.79883z" class="color231F20 svgShape"></path><path fill="#ffffff" d="M61.31322,56.46288v8.34889c0,0.6559-0.53171,1.18761-1.18761,1.18761H14.99666
			c-1.96769,0-3.56281-1.59512-3.56281-3.56281v-2.41087c0-1.9595,1.59142-3.56281,3.56281-3.56281H61.31322z" class="colorFFF svgShape"></path><path fill="#dfe1e6" d="M61.31322,56.46288v8.34889c0,0.65317-0.53437,1.18761-1.18761,1.18761H14.99666
			c-1.86447,0-3.38464-1.41325-3.53904-3.23032c29.50012,1.86454,41.15051-2.8265,45.68716-6.30618H61.31322z" class="colorDFE1E6 svgShape"></path><path fill="#231f20" d="M60.12744,1.00075c-14.59361,0-34.13588,0-48.44238,0c-3.30859,0-6,2.69141-6,6v53.99854
		c0,3.30859,2.69141,6,6,6c16.20425,0,32.32628,0,48.44043,0h0.00195c1.20605,0,2.1875-0.98145,2.1875-2.1875V3.18825
		C62.31494,1.98219,61.3335,1.00075,60.12744,1.00075z M60.31494,3.18825v52.27441H15.28418V3.00075h44.84326
		C60.23096,3.00075,60.31494,3.08473,60.31494,3.18825z M7.68506,60.99928V7.00075c0-2.20557,1.79443-4,4-4h1.59912v52.80182
		c-1.6684,0.67926-2.8501,2.31329-2.8501,4.22308v2.41113c0,0.92871,0.28217,1.79144,0.76068,2.51294
		C9.22235,64.70473,7.68506,63.03694,7.68506,60.99928z M14.99658,64.99928c-1.41309,0-2.5625-1.14941-2.5625-2.5625v-2.41113
		c0-1.41309,1.14941-2.56299,2.5625-2.56299h45.31641v7.34912c0,0.10352-0.08398,0.1875-0.1875,0.1875H14.99658z" class="color231F20 svgShape"></path><path fill="#ffffff" d="M56.4624 53.24977h-3c-.41406 0-.75-.33594-.75-.75s.33594-.75.75-.75h3c.41406 0 .75.33594.75.75S56.87646 53.24977 56.4624 53.24977zM49.52783 53.24977h-4c-.41406 0-.75-.33594-.75-.75s.33594-.75.75-.75h4c.41406 0 .75.33594.75.75S49.94189 53.24977 49.52783 53.24977z" class="colorFFF svgShape"></path></svg></g></svg>