<svg xmlns="http://www.w3.org/2000/svg" width="564.806" height="785.381" viewBox="0 0 564.806 785.381">
  <g id="trashcan" transform="translate(-9.999 -101.207)">
    <g id="box" transform="translate(0 86)">
      <path id="Path_1" data-name="Path 1" d="M418.563,16.081H32.856A12.4,12.4,0,0,0,19.081,29.856V622.192a12.4,12.4,0,0,0,13.775,13.775H338.667a68.876,68.876,0,0,0,68.876-66.121l24.8-539.991A13.775,13.775,0,0,0,418.563,16.081Z" transform="translate(114.915 164.534)" fill="#66bb6a"/>
      <path id="Path_2" data-name="Path 2" d="M418.563,16H345.554L324.892,480.227a68.876,68.876,0,0,1-68.876,66.121H19.081v75.764a12.4,12.4,0,0,0,13.775,13.775H338.667a68.876,68.876,0,0,0,68.876-66.121l24.8-539.991A13.775,13.775,0,0,0,418.563,16Z" transform="translate(114.915 164.614)" fill="#43a047"/>
      <path id="Path_3" data-name="Path 3" d="M206.894,30.081H49.856A12.4,12.4,0,0,0,36.081,43.856V278.035a12.4,12.4,0,0,0,13.775,13.775H194.5Z" transform="translate(332.095 343.388)" fill="#1b5e20"/>
    </g>
    <g id="wheel" transform="translate(0 86)">
      <circle id="Ellipse_1" data-name="Ellipse 1" cx="68.876" cy="68.876" r="68.876" transform="translate(78.895 662.749)" fill="#212121"/>
      <circle id="Ellipse_2" data-name="Ellipse 2" cx="13.775" cy="13.775" r="13.775" transform="translate(133.996 717.85)" fill="#757575"/>
    </g>
    <g id="lit" transform="translate(0 98.093)">
      <path id="Path_4" data-name="Path 4" d="M124.353,37.143,27.926,9.593A13.775,13.775,0,0,0,10.019,23.368V64.694a12.4,12.4,0,0,0,8.265,12.4l96.427,41.326A13.775,13.775,0,0,0,134,106.02v-55.1a16.53,16.53,0,0,0-9.643-13.775Z" transform="translate(0 74.595)" fill="#2e7d32"/>
      <path id="Path_5" data-name="Path 5" d="M124.353,18.665,91.293,10.4V39.328a13.775,13.775,0,0,1-19.285,12.4L10.019,25.553V46.216a12.4,12.4,0,0,0,8.265,12.4l96.427,41.326A13.775,13.775,0,0,0,134,87.542V32.44a16.53,16.53,0,0,0-9.643-13.775Z" transform="translate(0 93.073)" fill="#1b5e20"/>
      <path id="Path_6" data-name="Path 6" d="M400.656,120a336.12,336.12,0,0,0-49.591-89.539h-1.378A70.254,70.254,0,0,0,275.3,5.669L30.1,56.637a13.775,13.775,0,0,0-11.02,13.775v55.1a12.4,12.4,0,0,0,13.775,13.775h355.4A15.153,15.153,0,0,0,400.656,120Z" transform="translate(114.915)" fill="#2e7d32"/>
      <path id="Path_7" data-name="Path 7" d="M400.656,119.953a336.12,336.12,0,0,0-49.591-89.539h-1.378A71.631,71.631,0,0,0,280.811,4.24a524.841,524.841,0,0,1,31.683,61.989,15.153,15.153,0,0,1-13.775,19.285H19.081V126.84a12.4,12.4,0,0,0,13.775,13.775h355.4a15.153,15.153,0,0,0,12.4-20.663Z" transform="translate(114.915 0.051)" fill="#1b5e20"/>
      <rect id="Rectangle_1" data-name="Rectangle 1" width="468.359" height="96.427" rx="30" transform="translate(106.445 111.738)" fill="#43a047"/>
      <path id="Path_8" data-name="Path 8" d="M457.809,11H444.033V31.663a27.551,27.551,0,0,1-27.551,27.551H17V79.876a27.551,27.551,0,0,0,27.551,27.551H457.809a27.551,27.551,0,0,0,27.551-27.551V38.551A27.551,27.551,0,0,0,457.809,11Z" transform="translate(89.445 100.738)" fill="#2e7d32"/>
    </g>
  </g>
</svg>
