<svg id="SvgjsSvg1022" width="288" height="288" xmlns="http://www.w3.org/2000/svg" version="1.1" xmlns:xlink="http://www.w3.org/1999/xlink" xmlns:svgjs="http://svgjs.com/svgjs"><defs id="SvgjsDefs1023"></defs><g id="SvgjsG1024"><svg xmlns="http://www.w3.org/2000/svg" viewBox="0 0 64 64" width="288" height="288"><g data-name="Layer 2" fill="#000000" class="color000 svgShape"><path fill="#dbdfe1" d="M48,16H20a.9.9,0,0,0-1,1V60a.9.9,0,0,0,1,1H42.2a5,5,0,0,0,5-4.8L49,17A1,1,0,0,0,48,16Z" class="color66bb6a svgShape"></path><path fill="#66757d" d="M48,16H42.7L41.2,49.7a5,5,0,0,1-5,4.8H19V60a.9.9,0,0,0,1,1H42.2a5,5,0,0,0,5-4.8L49,17A1,1,0,0,0,48,16Z" class="color43a047 svgShape"></path><circle cx="20" cy="56" r="5" fill="#1e2224" class="color212121 svgShape"></circle><path fill="#363f43" d="M48.4,30H37a.9.9,0,0,0-1,1V48a.9.9,0,0,0,1,1H47.5Z" class="color1b5e20 svgShape"></path><path fill="#4d585e" d="M18.3,11l-7-2A1,1,0,0,0,10,10v3a.9.9,0,0,0,.6.9l7,3A1,1,0,0,0,19,16V12A1.2,1.2,0,0,0,18.3,11Z" class="color2e7d32 svgShape"></path><path fill="#363f43" d="M18.3,11l-2.4-.6v2.1a1,1,0,0,1-1.4.9L10,11.5V13a.9.9,0,0,0,.6.9l7,3A1,1,0,0,0,19,16V12A1.2,1.2,0,0,0,18.3,11Z" class="color1b5e20 svgShape"></path><path fill="#4d585e" d="M46.7,11.6a24.4,24.4,0,0,0-3.6-6.5H43a5.1,5.1,0,0,0-5.4-1.8L19.8,7A1,1,0,0,0,19,8v4a.9.9,0,0,0,1,1H45.8A1.1,1.1,0,0,0,46.7,11.6Z" class="color2e7d32 svgShape"></path><path fill="#363f43" d="M46.7,11.6a24.4,24.4,0,0,0-3.6-6.5H43a5.2,5.2,0,0,0-5-1.9,38.1,38.1,0,0,1,2.3,4.5,1.1,1.1,0,0,1-1,1.4H19v3a.9.9,0,0,0,1,1H45.8A1.1,1.1,0,0,0,46.7,11.6Z" class="color1b5e20 svgShape"></path><circle cx="20" cy="56" r="1" fill="#697981" class="color757575 svgShape"></circle><rect width="34" height="7" x="17" y="11" fill="#66757d" rx="2" class="color43a047 svgShape"></rect><path fill="#4d585e" d="M49,11H48v1.5a2,2,0,0,1-2,2H17V16a2,2,0,0,0,2,2H49a2,2,0,0,0,2-2V13A2,2,0,0,0,49,11Z" class="color2e7d32 svgShape"></path></g></svg></g></svg>